<?xml version="1.0" encoding="utf-8"?>
<!-- Generator: Adobe Illustrator 23.0.3, SVG Export Plug-In . SVG Version: 6.00 Build 0)  -->
<svg version="1.1" id="Capa_1" xmlns="http://www.w3.org/2000/svg" xmlns:xlink="http://www.w3.org/1999/xlink" x="0px" y="0px"
	 viewBox="0 0 512 512" style="enable-background:new 0 0 512 512;" xml:space="preserve">
<style type="text/css">
	.st0{fill:url(#SVGID_1_);}
	.st1{fill:url(#SVGID_2_);}
	.st2{fill:url(#SVGID_3_);}
	.st3{fill:url(#SVGID_4_);}
	.st4{fill:url(#SVGID_5_);}
	.st5{fill:url(#SVGID_6_);}
	.st6{fill:url(#SVGID_7_);}
	.st7{fill:url(#SVGID_8_);}
	.st8{fill:url(#SVGID_9_);}
	.st9{fill:url(#SVGID_10_);}
	.st10{fill:url(#SVGID_11_);}
	.st11{fill:url(#SVGID_12_);}
	.st12{fill:url(#SVGID_13_);}
	.st13{fill:url(#SVGID_14_);}
	.st14{fill:url(#SVGID_15_);}
	.st15{fill:url(#SVGID_16_);}
	.st16{fill:url(#SVGID_17_);}
	.st17{fill:url(#SVGID_18_);}
	.st18{fill:url(#SVGID_19_);}
	.st19{fill:url(#SVGID_20_);}
	.st20{fill:url(#SVGID_21_);}
	.st21{fill:url(#SVGID_22_);}
	.st22{fill:url(#SVGID_23_);}
	.st23{fill:url(#SVGID_24_);}
	.st24{fill:url(#SVGID_25_);}
	.st25{fill:#9D9AE8;}
	.st26{fill:#FCC69D;}
	.st27{fill:#2D2A2B;}
	.st28{fill:#93CE92;}
	.st29{fill:#253E59;}
	.st30{fill:#DAD0D3;}
	.st31{fill:#FCFCFC;}
	.st32{fill:#F9F9F9;}
	.st33{fill:#ED4D67;}
	.st34{fill:#A30D2A;}
	.st35{fill:url(#SVGID_26_);}
	.st36{fill:url(#SVGID_27_);}
	.st37{fill:url(#SVGID_28_);}
	.st38{fill:url(#SVGID_29_);}
</style>
<g>
	<path d="M215.4,164.6c-6-28.1-11.6-53.9-16.9-79.8c-4.6-22.4,4.7-41.1,23-46.5c19.3-5.7,38.8,4.6,45.8,26.9
		c5.9,18.7,8.8,38.3,13.1,57.6c1,4.5,2.2,8.9,5.5,13.5c4.3-20.3,8.6-40.5,12.8-60.8c2-9.8,5.4-19,12-26.7
		c10.2-12,24.7-15.1,39.5-8.7c15.3,6.6,24.4,21.3,21.3,39.2c-5.8,34.8-12.3,69.5-19.9,103.9c-3.6,16.2-3.2,27.6,11,40.5
		c21.9,20.2,37,45.7,36.6,77.9c-0.2,14.7-6.1,25.9-15.3,36.2c-15.7,17.5-34.4,31.5-53.1,45.4c-7.7,5.8-9.9,9.4,0.6,15
		c16.8,9,16.3,33.9,12,55.7c-3,15.2-14.6,21.1-35.2,21.2c-43.6,0.1-87.2,0.1-130.8,0c-24.2-0.1-34.7-10.9-35.2-35.2
		c-0.3-17.3-1.5-34.8,17.8-44.5c2.8-1.4,4.6-5.8,1.3-9.2c-30.7-32-32.7-73.9-39.3-114.1c-2.8-17.4-5.3-34.9-8.2-52.3
		c-5.4-32,17.2-51.7,47.4-41.1c3.9,1.4,6.8,3.9,10.5-1.2C181.9,163.4,196.6,160.5,215.4,164.6z"/>
	<path class="st26" d="M235.3,247.6c-1.8,25,10.4,39.3,33.4,40.7c9.8,0.6,19.7,0.1,29.2-3.1c2.8-0.9,6.5-2.2,8,1.8
		c1.5,4.2-2.6,4.9-5.1,6.2c-8.9,4.8-15.7,11.7-20.7,20.5c-3,5.2-5.8,10.8,1,14.7c6,3.4,9.5-0.9,12.1-5.9c2.7-5.2,6.6-9.3,11.2-12.7
		c5.5-4,11-8.5,17-0.3c3,4,7.4,4.1,10.9,1.1c3.7-3.1,3.2-7.4,0.8-11.3c-6-9.7-12.1-19.3-18.2-28.9c-4-6.3-9.3-5.2-15-2.7
		c-10.7,4.6-22,5.9-33.5,4.5c-7.3-0.9-12.7-4.7-15.2-11.6c-2.3-6.4,2.2-10.9,6.3-14.8c14.4-13.9,31.5-23.5,50.6-29.2
		c7.5-2.2,15.5-3.1,22.6,1.4c27.1,17.1,44.9,41.2,51.8,72.5c3.3,15.1-1.8,28.3-13.1,39.4c-18.9,18.6-41.1,33.2-60.8,50.7
		c-11.6,10.3-23.1,13.6-37.9,12.8c-19.6-1.1-39.4-1.2-59.1,0c-15.7,1-26.8-5.5-36.9-15.8c-14.4-14.9-24-32.6-28.3-52.7
		c-4.1-19.2-6.4-38.8-9.6-58.2c-1-6.2-1-9.8,7.5-7.9c12.6,2.8,22-6.4,32.7-9.7c8.6-2.7,19,11.9,32,10.5
		C219.1,258.6,227.1,254.6,235.3,247.6z"/>
	<path class="st26" d="M243.3,236.2c-0.1-34.2-11.6-65.7-17.4-98.2c-3.5-19.4-8.1-38.5-12.2-57.8c-2.6-12-0.2-22.5,12.5-26.3
		c12.5-3.8,22.2,2.9,25.3,14.6c6.4,24,11.1,48.4,16.4,72.6c2.6,12.1,4.8,24.4,7.5,36.5c1.2,5.4,1.3,12.4,8.9,12.7
		c7.8,0.2,8.1-6.6,9.2-12.1c6.6-31.9,13.2-63.9,19.9-95.8c1.2-5.5,2.5-11.2,4.9-16.3c4.2-9.1,10.8-15.6,22-12.6
		c11.1,3,16.5,11.1,15.4,22.1c-1.4,13.4-4.3,26.6-6.8,39.8c-4.8,24.9-9.8,49.8-14.8,74.7c-0.8,4.2,0.1,10.2-7.2,9.7
		C293.1,197.5,268.4,216.4,243.3,236.2z"/>
	<path class="st25" d="M244.3,459.3c-22.8,0-45.6,0.2-68.4-0.1c-16.8-0.2-19.3-4.2-19-27.8c0.2-17.7,4.1-22.3,20-22.4
		c44.6-0.1,89.1-0.1,133.7,0c16.1,0.1,19.6,4.6,19.7,24.1c0,21.8-2.7,25.9-19,26.1C288.8,459.6,266.5,459.4,244.3,459.3
		C244.3,459.4,244.3,459.3,244.3,459.3z"/>
	<path class="st26" d="M227.7,220.3c-0.3,12.6-5,19.7-14.3,22.6c-10.1,3.1-19.4-0.2-23.4-9.7c-4.5-10.8-7.4-22.5-9.1-34.1
		c-1.5-10.6,5.3-17.7,15.3-20.1c9.4-2.3,18.2,1,21.9,10.1C222.6,199.9,225.1,211.6,227.7,220.3z"/>
	<path class="st26" d="M168.6,227.7c-1.2,9.2-6.7,16.3-18.7,16c-12.5-0.3-22.6-16.1-21.6-34.5c0.6-11.4,7.3-18.1,18.9-18.1
		C159.2,191.1,169.2,207.8,168.6,227.7z"/>
</g>
</svg>
