<?xml version="1.0" encoding="utf-8"?>
<!-- Generator: Adobe Illustrator 23.0.3, SVG Export Plug-In . SVG Version: 6.00 Build 0)  -->
<svg version="1.1" id="Capa_1" xmlns="http://www.w3.org/2000/svg" xmlns:xlink="http://www.w3.org/1999/xlink" x="0px" y="0px"
	 viewBox="0 0 512 512" style="enable-background:new 0 0 512 512;" xml:space="preserve">
<style type="text/css">
	.st0{fill:url(#SVGID_1_);}
	.st1{fill:url(#SVGID_2_);}
	.st2{fill:url(#SVGID_3_);}
	.st3{fill:url(#SVGID_4_);}
	.st4{fill:url(#SVGID_5_);}
	.st5{fill:url(#SVGID_6_);}
	.st6{fill:url(#SVGID_7_);}
	.st7{fill:url(#SVGID_8_);}
	.st8{fill:url(#SVGID_9_);}
	.st9{fill:url(#SVGID_10_);}
	.st10{fill:url(#SVGID_11_);}
	.st11{fill:url(#SVGID_12_);}
	.st12{fill:url(#SVGID_13_);}
	.st13{fill:url(#SVGID_14_);}
	.st14{fill:url(#SVGID_15_);}
	.st15{fill:url(#SVGID_16_);}
	.st16{fill:url(#SVGID_17_);}
	.st17{fill:url(#SVGID_18_);}
	.st18{fill:url(#SVGID_19_);}
	.st19{fill:url(#SVGID_20_);}
	.st20{fill:url(#SVGID_21_);}
	.st21{fill:url(#SVGID_22_);}
	.st22{fill:url(#SVGID_23_);}
	.st23{fill:url(#SVGID_24_);}
	.st24{fill:url(#SVGID_25_);}
	.st25{fill:#9D9AE8;}
	.st26{fill:#FCC69D;}
	.st27{fill:#2D2A2B;}
	.st28{fill:#93CE92;}
	.st29{fill:#253E59;}
	.st30{fill:#DAD0D3;}
	.st31{fill:#FCFCFC;}
	.st32{fill:#F9F9F9;}
	.st33{fill:#ED4D67;}
	.st34{fill:#A30D2A;}
	.st35{fill:url(#SVGID_26_);}
	.st36{fill:url(#SVGID_27_);}
	.st37{fill:url(#SVGID_28_);}
	.st38{fill:url(#SVGID_29_);}
</style>
<linearGradient id="SVGID_1_" gradientUnits="userSpaceOnUse" x1="112.9291" y1="256" x2="399.0708" y2="256">
	<stop  offset="0" style="stop-color:#F9009A"/>
	<stop  offset="0.995" style="stop-color:#083DBF"/>
</linearGradient>
<path class="st0" d="M362.5,223.7c-14.1-13-14.5-24.3-11-40.5c7.6-34.4,14.1-69.1,19.9-103.9c3-17.9-6-32.6-21.3-39.2
	c-14.8-6.4-29.3-3.3-39.5,8.7c-6.6,7.7-9.9,16.9-12,26.7c-4.2,20.3-8.5,40.5-12.8,60.8c-3.3-4.6-4.5-9-5.5-13.5
	c-4.3-19.2-7.2-38.9-13.1-57.6c-7.1-22.2-26.6-32.6-45.8-26.9c-18.2,5.4-27.6,24.1-23,46.5c5.3,25.8,10.9,51.6,16.9,79.8
	c-18.8-4.1-33.5-1.2-43.8,13.1c-3.6,5-6.5,2.6-10.5,1.2c-30.2-10.6-52.8,9.1-47.4,41.1c2.9,17.4,5.4,34.9,8.2,52.3
	c6.6,40.3,8.5,82.1,39.3,114.1c3.3,3.4,1.5,7.8-1.3,9.2c-19.2,9.7-18.1,27.2-17.8,44.5c0.4,24.3,11,35.1,35.2,35.2
	c43.6,0.1,87.2,0.1,130.8,0c20.6,0,32.2-6,35.2-21.2c4.3-21.8,4.8-46.7-12-55.7c-10.4-5.6-8.3-9.3-0.6-15
	c18.7-14,37.4-27.9,53.1-45.4c9.2-10.3,15.1-21.5,15.3-36.2C399.5,269.4,384.4,243.8,362.5,223.7z M213.8,80.2
	c-2.6-12-0.2-22.5,12.5-26.3c12.5-3.8,22.2,2.9,25.3,14.6c6.4,24,11.1,48.4,16.4,72.6c2.6,12.1,4.8,24.4,7.5,36.5
	c1.2,5.4,1.3,12.4,8.9,12.7c7.8,0.2,8.1-6.6,9.2-12.1c6.6-31.9,13.2-63.9,19.9-95.8c1.2-5.5,2.5-11.2,4.9-16.3
	c4.2-9.1,10.8-15.6,22-12.6c11.1,3,16.5,11.1,15.4,22.1c-1.4,13.4-4.3,26.6-6.8,39.8c-4.8,24.9-9.8,49.8-14.8,74.7
	c-0.8,4.2,0.1,10.2-7.2,9.7c-33.9-2.3-58.6,16.6-83.7,36.4c-0.1-34.2-11.6-65.7-17.4-98.2C222.5,118.6,217.9,99.5,213.8,80.2z
	 M196.2,179c9.4-2.3,18.2,1,21.9,10.1c4.5,10.8,7,22.5,9.6,31.3c-0.3,12.6-5,19.7-14.3,22.6c-10.1,3.1-19.4-0.2-23.4-9.7
	c-4.5-10.8-7.4-22.5-9.1-34.1C179.4,188.5,186.2,181.4,196.2,179z M128.3,209.2c0.6-11.4,7.3-18.1,18.9-18.1c12,0,22,16.7,21.4,36.6
	c-1.2,9.2-6.7,16.3-18.7,16C137.4,243.4,127.4,227.6,128.3,209.2z M330.1,433.2c0,21.8-2.7,25.9-19,26.1
	c-22.3,0.3-44.6,0.1-66.8,0.1c0,0,0,0,0-0.1c-22.8,0-45.6,0.3-68.4-0.1c-16.8-0.2-19.3-4.2-19-27.8c0.2-17.7,4.1-22.3,20-22.4
	c44.6-0.1,89.1-0.1,133.7,0C326.6,409.2,330.1,413.7,330.1,433.2z M369.6,330c-18.9,18.6-41.1,33.2-60.8,50.7
	c-11.6,10.3-23.1,13.6-37.9,12.8c-19.6-1.1-39.4-1.2-59.1,0c-15.7,1-26.8-5.5-36.9-15.8c-14.4-14.9-24-32.6-28.3-52.7
	c-4.1-19.2-6.4-38.8-9.6-58.2c-1-6.2-1-9.8,7.5-7.9c12.6,2.8,22-6.4,32.7-9.7c8.6-2.7,19,11.9,32,10.5c9.8-1.1,17.8-5,26-12.1
	c-1.8,25,10.4,39.3,33.4,40.7c9.8,0.6,19.7,0.1,29.2-3.1c2.8-0.9,6.5-2.2,8,1.8c1.5,4.2-2.6,4.9-5.1,6.2
	c-8.9,4.8-15.7,11.7-20.7,20.5c-3,5.2-5.8,10.8,1,14.7c6,3.4,9.5-0.9,12.1-5.9c2.7-5.2,6.6-9.3,11.2-12.7c5.5-4,11-8.5,17-0.3
	c3,4,7.4,4.1,10.9,1.1c3.7-3.1,3.2-7.4,0.8-11.3c-6-9.7-12.1-19.3-18.2-28.9c-4-6.3-9.3-5.2-15-2.7c-10.7,4.6-22,5.9-33.5,4.5
	c-7.3-0.9-12.7-4.7-15.2-11.6c-2.3-6.4,2.2-10.9,6.3-14.8c14.4-13.9,31.5-23.5,50.6-29.2c7.5-2.2,15.5-3.1,22.6,1.4
	c27.1,17.1,44.9,41.2,51.8,72.5C386,305.6,381,318.9,369.6,330z"/>
</svg>
